<svg width="76" height="76" viewBox="0 0 76 76" fill="none" xmlns="http://www.w3.org/2000/svg">
<rect x="1.07646" y="1.26143" width="73.1995" height="73.1995" rx="36.5997" stroke="white" stroke-width="2.15293"/>
<path d="M36.2375 29.2074C36.8975 30.1143 37.2274 31.196 37.2274 32.4613C37.2274 33.7615 36.8975 34.8105 36.2288 35.6016C35.8529 36.0408 35.3044 36.4473 34.5789 36.8122C35.6802 37.2099 36.5107 37.8371 37.0766 38.6938C37.6361 39.5504 37.918 40.5928 37.918 41.8165C37.918 43.0796 37.5967 44.2138 36.9543 45.2147C36.5478 45.8768 36.0364 46.4384 35.4246 46.8908C34.7014 47.4261 33.8672 47.7921 32.9836 47.9616C32.0439 48.1539 31.0278 48.2479 29.9307 48.2479H20.1953V26.9347H30.6366C33.272 26.974 35.1361 27.7301 36.2375 29.2074ZM24.5025 30.6366V35.3393H29.7559C30.6912 35.3393 31.4539 35.1623 32.0417 34.8105C32.6252 34.4587 32.9202 33.8337 32.9202 32.9399C32.9202 31.9434 32.5334 31.29 31.7598 30.9687C31.0911 30.748 30.2389 30.6366 29.2052 30.6366H24.5025ZM24.5025 38.8664V44.5503H29.7494C30.6868 44.5503 31.4189 44.4258 31.939 44.1745C32.8874 43.7068 33.3595 42.824 33.3595 41.5128C33.3595 40.4005 32.9027 39.64 31.9849 39.2248C31.4692 38.9953 30.748 38.873 29.8215 38.8664H24.5025ZM50.9795 32.8088C52.0962 33.3005 53.014 34.0784 53.7373 35.1405C54.3973 36.078 54.8212 37.1641 55.0135 38.3987C55.1272 39.1199 55.1709 40.1666 55.1534 41.5281H43.5123C43.5823 43.1081 44.133 44.2182 45.1863 44.8519C45.8244 45.2475 46.5892 45.4463 47.4918 45.4463C48.4402 45.4463 49.2138 45.2059 49.8082 44.7252C50.136 44.4629 50.4222 44.1024 50.6692 43.6413H54.9349C54.8212 44.5744 54.3033 45.525 53.3877 46.4909C51.9563 48.0206 49.9524 48.7876 47.3759 48.7876C45.2475 48.7876 43.3725 48.143 41.7488 46.8493C40.1186 45.5578 39.3078 43.4533 39.3078 40.5403C39.3078 37.8087 40.0421 35.713 41.5084 34.2554C42.9791 32.8022 44.8803 32.0701 47.2208 32.0701C48.615 32.0679 49.8672 32.3149 50.9795 32.8088ZM44.7317 36.3686C44.1417 36.9696 43.7702 37.7825 43.6172 38.8074H50.8178C50.7413 37.7126 50.3676 36.8843 49.7055 36.314C49.0346 35.748 48.2107 35.4661 47.2252 35.4661C46.1565 35.4683 45.3218 35.7698 44.7317 36.3686ZM42.5377 30.5819H51.7968V27.929H42.5377V30.5819Z" fill="white"/>
</svg>
