<svg width="101" height="101" viewBox="0 0 101 101" fill="none" xmlns="http://www.w3.org/2000/svg">
<g clip-path="url(#clip0_83_184)">
<path fill-rule="evenodd" clip-rule="evenodd" d="M59.0811 13.4313C56.5297 13.4313 54.4432 15.5167 54.4432 18.0667C54.4432 20.6167 56.5297 22.702 59.0811 22.702H76.5477C79.099 22.702 81.1856 20.6167 81.1856 18.0667C81.1856 15.5167 79.099 13.4313 76.5477 13.4313H59.0811Z" fill="#CCF5FC"/>
<path fill-rule="evenodd" clip-rule="evenodd" d="M18.774 13.4313C16.2115 13.4313 14.1361 15.5055 14.1361 18.0667C14.1361 20.6278 16.2115 22.702 18.774 22.702C21.3365 22.702 23.4174 20.6278 23.4174 18.0667C23.4174 15.5057 21.3363 13.4313 18.774 13.4313Z" fill="#CCF5FC"/>
<path d="M18.774 22.7245C16.2043 22.7245 14.1139 20.635 14.1139 18.0669C14.1139 15.4987 16.2043 13.4092 18.774 13.4092C21.3467 13.4092 23.4397 15.4987 23.4397 18.0669C23.4397 20.635 21.3467 22.7245 18.774 22.7245ZM18.774 13.4538C16.2289 13.4538 14.1584 15.5231 14.1584 18.0669C14.1584 20.6106 16.2289 22.68 18.774 22.68C21.3221 22.68 23.3951 20.6106 23.3951 18.0669C23.3951 15.5231 21.3221 13.4538 18.774 13.4538Z" fill="#8AA8BD"/>
<path fill-rule="evenodd" clip-rule="evenodd" d="M35.8975 13.4313C33.335 13.4313 31.2596 15.5055 31.2596 18.0667C31.2596 20.6278 33.335 22.702 35.8975 22.702C38.46 22.702 40.5408 20.6278 40.5408 18.0667C40.5408 15.5057 38.46 13.4313 35.8975 13.4313Z" fill="#DC72A9"/>
<path fill-rule="evenodd" clip-rule="evenodd" d="M75.3412 63.1153C69.7791 63.1153 65.274 67.618 65.274 73.177C65.274 78.7307 69.7791 83.2333 75.3412 83.2333C80.8979 83.2333 85.4028 78.7305 85.4028 73.177C85.4028 67.618 80.8977 63.1153 75.3412 63.1153Z" fill="white"/>
<path fill-rule="evenodd" clip-rule="evenodd" d="M71.0465 52.4395V54.6909C68.9434 55.1833 66.9733 56.0184 65.2022 57.1413L63.6137 55.5592C62.6674 54.6079 61.1121 54.6079 60.1602 55.5592L57.642 58.076C56.6901 59.0274 56.6901 60.5819 57.642 61.5276L59.2469 63.1372C58.1455 64.9016 57.3264 66.8598 56.8504 68.9508H54.5924C53.2475 68.9508 52.1518 70.0516 52.1518 71.3903V74.9581C52.1518 76.2968 53.2477 77.3975 54.5924 77.3975H56.8561C57.3375 79.4995 58.1678 81.4686 59.2858 83.2387L57.6864 84.8319C56.7401 85.7833 56.7401 87.3378 57.6864 88.2835L60.21 90.8059C61.1563 91.7573 62.7116 91.7573 63.6635 90.8059L65.2575 89.2128C67.034 90.3247 69.0098 91.1598 71.1129 91.6356V93.9091C71.1129 95.2532 72.2143 96.354 73.5536 96.354H77.1233C78.4625 96.354 79.5639 95.2532 79.5639 93.9091V91.6413C81.678 91.16 83.6537 90.3303 85.4303 89.213L87.0297 90.8061C87.976 91.7575 89.5313 91.7575 90.4832 90.8061L93.0014 88.2837C93.9534 87.3378 93.9534 85.7835 93.0014 84.8321L91.4075 83.2389C92.52 81.4688 93.35 79.4997 93.8315 77.3977H96.084C97.4289 77.3977 98.5303 76.2969 98.5303 74.9583V71.3905C98.5303 70.0518 97.4289 68.951 96.084 68.951H93.8426C93.3612 66.838 92.5309 64.8577 91.4075 63.0766L93.0014 61.478C93.9534 60.5321 93.9534 58.9778 93.0014 58.0264L91.4075 56.4333L90.4832 55.5094C89.5313 54.5581 87.9762 54.5581 87.0297 55.5094L85.4303 57.1026C83.6317 55.9741 81.6336 55.1335 79.4975 54.6577V52.4395C79.4975 51.0954 78.3961 49.9946 77.0512 49.9946H73.4871C72.1424 49.9946 71.0465 51.0954 71.0465 52.4395ZM75.3412 63.1153C80.8979 63.1153 85.4028 67.618 85.4028 73.177C85.4028 78.7307 80.8977 83.2333 75.3412 83.2333C69.7791 83.2333 65.2741 78.7305 65.2741 73.177C65.2741 67.618 69.7791 63.1153 75.3412 63.1153Z" fill="#CCF5FC"/>
<path fill-rule="evenodd" clip-rule="evenodd" d="M84.1354 4.97917H18.1652H9.74181C5.74044 4.97917 2.46954 8.88444 2.46954 13.6635V31.0104H33.1026H91.4076V13.6637C91.4076 8.88991 88.1367 4.97917 84.1354 4.97917ZM35.8975 13.4313C38.46 13.4313 40.5408 15.5055 40.5408 18.0667C40.5408 20.6278 38.46 22.702 35.8975 22.702C33.335 22.702 31.2596 20.6278 31.2596 18.0667C31.2596 15.5057 33.335 13.4313 35.8975 13.4313ZM18.774 13.4313C21.3365 13.4313 23.4174 15.5055 23.4174 18.0667C23.4174 20.6278 21.3365 22.702 18.774 22.702C16.2115 22.702 14.1361 20.6278 14.1361 18.0667C14.1361 15.5057 16.2115 13.4313 18.774 13.4313ZM54.4434 18.0667C54.4434 15.5167 56.5299 13.4313 59.0813 13.4313H76.5479C79.0992 13.4313 81.1858 15.5167 81.1858 18.0667C81.1858 20.6167 79.0992 22.702 76.5479 22.702H59.0813C56.5297 22.7022 54.4434 20.6169 54.4434 18.0667Z" fill="#8AA8BD"/>
<path fill-rule="evenodd" clip-rule="evenodd" d="M33.1026 31.0104H2.46954V68.7132C2.46954 73.4868 5.74591 77.3975 9.74181 77.3975H54.5926C53.2477 77.3975 52.152 76.2968 52.152 74.9581V71.3903C52.152 70.0516 53.2479 68.9508 54.5926 68.9508H56.8506C57.3266 66.86 58.1457 64.9018 59.2471 63.1372L57.6422 61.5276C56.6902 60.5817 56.6902 59.0274 57.6422 58.076L60.1604 55.5592C61.1123 54.6079 62.6674 54.6079 63.6139 55.5592L65.2024 57.1413C66.9734 56.0184 68.9436 55.1831 71.0467 54.6909V52.4395C71.0467 51.0954 72.1426 49.9946 73.4873 49.9946H77.0514C78.3963 49.9946 79.4977 51.0954 79.4977 52.4395V54.6577C81.634 55.1335 83.6319 55.9741 85.4305 57.1026L87.0299 55.5094C87.9762 54.5581 89.5315 54.5581 90.4834 55.5094L91.4076 56.4333V31.0104H33.1026Z" fill="white"/>
<path d="M18.774 11.4618C15.1307 11.4618 12.1666 14.4249 12.1666 18.0667C12.1666 21.7085 15.1307 24.6716 18.774 24.6716C22.4203 24.6716 25.3869 21.7085 25.3869 18.0667C25.3869 14.4249 22.4203 11.4618 18.774 11.4618ZM18.774 20.7325C17.3028 20.7325 16.1059 19.5366 16.1059 18.0667C16.1059 16.5967 17.3028 15.401 18.774 15.401C20.2483 15.401 21.4479 16.5969 21.4479 18.0669C21.4479 19.5368 20.2483 20.7325 18.774 20.7325Z" fill="black"/>
<path d="M76.5477 11.4618H59.0811C55.4377 11.4618 52.4736 14.4249 52.4736 18.0667C52.4736 21.7085 55.4377 24.6716 59.0811 24.6716H76.5477C80.191 24.6716 83.1551 21.7085 83.1551 18.0667C83.1551 14.4249 80.191 11.4618 76.5477 11.4618ZM76.5477 20.7325H59.0811C57.6098 20.7325 56.4129 19.5366 56.4129 18.0667C56.4129 16.5967 57.61 15.4009 59.0811 15.4009H76.5477C78.0189 15.4009 79.2158 16.5967 79.2158 18.0667C79.2158 19.5366 78.0189 20.7325 76.5477 20.7325Z" fill="black"/>
<path d="M35.8975 11.4618C32.2541 11.4618 29.29 14.4249 29.29 18.0667C29.29 21.7085 32.2541 24.6716 35.8975 24.6716C39.5438 24.6716 42.5104 21.7085 42.5104 18.0667C42.5104 14.4249 39.5438 11.4618 35.8975 11.4618ZM35.8975 20.7325C34.4262 20.7325 33.2293 19.5366 33.2293 18.0667C33.2293 16.5967 34.4264 15.4009 35.8975 15.4009C37.3717 15.4009 38.5713 16.5967 38.5713 18.0667C38.5713 19.5366 37.3717 20.7325 35.8975 20.7325Z" fill="black"/>
<path d="M32.6859 44.1128C31.6283 43.8594 30.5652 44.5124 30.3125 45.5706L26.4051 61.9218C26.1523 62.9798 26.8049 64.0425 27.8629 64.2952C28.0168 64.3319 28.1709 64.3497 28.3225 64.3497C29.2129 64.3497 30.0203 63.7415 30.2363 62.8374L34.1437 46.4862C34.3967 45.4282 33.7439 44.3657 32.6859 44.1128Z" fill="black"/>
<path d="M39.917 62.3735C40.2924 62.7079 40.7603 62.8723 41.2264 62.8723C41.7687 62.8723 42.3088 62.6497 42.698 62.2128L48.2211 56.0128C49.1324 54.9983 49.1324 53.4096 48.2267 52.4016L42.6978 46.1952C41.974 45.3827 40.7289 45.3112 39.917 46.0344C39.1045 46.7581 39.0326 48.0032 39.7562 48.8153L44.5564 54.2038L39.7562 59.5925C39.0328 60.405 39.1047 61.6501 39.917 62.3735Z" fill="black"/>
<path d="M20.632 46.0346C19.8195 45.311 18.5748 45.3835 17.8512 46.1954L12.3287 52.3948C11.4162 53.4094 11.4162 54.9989 12.3225 56.0065L17.8514 62.213C18.2406 62.6501 18.7805 62.8725 19.323 62.8725C19.7891 62.8725 20.2572 62.7081 20.6324 62.3737C21.4449 61.6501 21.5168 60.4049 20.7932 59.5928L15.993 54.2044L20.7932 48.8157C21.5164 48.0032 21.4445 46.7581 20.632 46.0346Z" fill="black"/>
<path d="M96.0842 66.9815H95.3529C94.9699 65.7409 94.4736 64.5432 93.8682 63.3987L94.39 62.8751C95.2234 62.0467 95.6834 60.9407 95.6852 59.7606C95.6869 58.5778 95.2285 57.4673 94.3941 56.6331L93.3773 55.6169V13.6637C93.3773 7.78894 89.2316 3.00964 84.1355 3.00964H9.7418C4.6457 3.00964 0.5 7.78894 0.5 13.6637V68.7132C0.5 74.588 4.6457 79.3673 9.7418 79.3673H21.2977C22.3854 79.3673 23.2672 78.4854 23.2672 77.3977C23.2672 76.31 22.3854 75.4282 21.2977 75.4282H9.7418C6.86758 75.4282 4.43926 72.353 4.43926 68.7133V32.9801H89.4379V52.8835C89.2135 52.8489 88.9861 52.8262 88.7547 52.8262C88.7523 52.8262 88.75 52.8262 88.7479 52.8262C87.5678 52.8282 86.4617 53.2876 85.6398 54.1139L85.1074 54.644C83.9389 54.0266 82.7219 53.5245 81.467 53.1411V52.4395C81.467 50.0051 79.4861 48.0249 77.0512 48.0249H73.4869C71.0551 48.0249 69.0768 50.0051 69.0768 52.4395V53.1891C67.8455 53.576 66.6566 54.0739 65.5203 54.6786L65.0102 54.17C64.1816 53.3374 63.0754 52.8776 61.8953 52.8759C61.8932 52.8759 61.891 52.8759 61.8887 52.8759C60.7084 52.8759 59.6002 53.3339 58.7676 54.1659L56.2494 56.6829C55.415 57.5169 54.9566 58.6276 54.9584 59.8102C54.9602 60.9903 55.4199 62.0964 56.2471 62.9182L56.791 63.4637C56.2006 64.5907 55.7156 65.7663 55.3404 66.9811H54.5924C52.1604 66.9811 50.182 68.9589 50.182 71.3901V74.9579C50.182 75.1165 50.1908 75.2731 50.2072 75.4274H38.7473C37.6596 75.4274 36.7777 76.3093 36.7777 77.3969C36.7777 78.4846 37.6596 79.3665 38.7473 79.3665H54.5922H55.3479C55.7287 80.5928 56.2211 81.7778 56.8217 82.9122L56.2895 83.4421C54.576 85.1647 54.5775 87.9614 56.2936 89.676L58.8131 92.1946C59.6416 93.0272 60.7478 93.487 61.9279 93.4887H61.9344C63.1148 93.4887 64.223 93.0307 65.0557 92.1985L65.5832 91.6714C66.7277 92.2747 67.9178 92.7677 69.1428 93.1464V93.9087C69.1428 96.343 71.1211 98.3233 73.5531 98.3233H77.1228C79.5547 98.3233 81.533 96.343 81.533 93.9087V93.151C82.7695 92.7696 83.9645 92.2747 85.1076 91.6712L85.6328 92.1944C86.4611 93.0272 87.5672 93.4868 88.7473 93.4887H88.7541C89.9344 93.4887 91.0426 93.0307 91.8768 92.1971L94.3895 89.6801C95.2228 88.8518 95.6828 87.7458 95.6846 86.5657C95.6863 85.3829 95.2279 84.2723 94.3934 83.4382L93.8678 82.9128C94.4672 81.7774 94.9592 80.5917 95.3395 79.3667H96.0838C98.5188 79.3667 100.5 77.3889 100.5 74.9579V71.3901C100.5 68.9592 98.5191 66.9815 96.0842 66.9815ZM4.43926 29.0409V13.6637C4.43926 10.0241 6.86758 6.9489 9.7418 6.9489H84.1355C87.0098 6.9489 89.4381 10.0241 89.4381 13.6637V29.0411L4.43926 29.0409ZM96.5607 74.9583C96.5607 75.2085 96.3381 75.4278 96.084 75.4278H93.8316C92.9133 75.4278 92.1168 76.0624 91.9117 76.9575C91.4863 78.8139 90.7557 80.5745 89.7398 82.1907C89.2506 82.969 89.3648 83.9823 90.0152 84.6321L91.609 86.2249C91.7281 86.344 91.7457 86.4862 91.7457 86.5604C91.7455 86.6491 91.7225 86.7778 91.6074 86.8919L89.091 89.4128C88.9717 89.5319 88.8293 89.5499 88.7543 89.5499C88.7541 89.5499 88.7539 89.5499 88.7539 89.5499C88.6645 89.5499 88.5353 89.5266 88.4199 89.4104L86.8203 87.8175C86.1697 87.1696 85.1584 87.0573 84.3816 87.5456C82.7631 88.5637 80.9951 89.2956 79.1266 89.7208C78.2303 89.9251 77.5941 90.7219 77.5941 91.6415V93.9093C77.5941 94.1624 77.374 94.3846 77.1232 94.3846H73.5535C73.3025 94.3846 73.0824 94.1626 73.0824 93.9093V91.6358C73.0824 90.7155 72.4449 89.9176 71.5473 89.7147C69.7025 89.2975 67.9377 88.5669 66.3022 87.5434C65.9799 87.3417 65.6178 87.2432 65.2578 87.2432C64.749 87.2432 64.2447 87.4399 63.8648 87.82L62.2713 89.4128C62.152 89.5319 62.0096 89.5499 61.9346 89.5499C61.9344 89.5499 61.9342 89.5499 61.934 89.5499C61.8447 89.5499 61.7154 89.5266 61.6023 89.413L59.0787 86.8905C58.902 86.7139 58.9039 86.401 59.0764 86.2276L60.6758 84.6346C61.3293 83.9839 61.4436 82.9671 60.9512 82.1874C59.9338 80.5764 59.2021 78.8171 58.7764 76.9581C58.5713 76.063 57.7748 75.4282 56.8563 75.4282H54.5926C54.3373 75.4282 54.1215 75.2132 54.1215 74.9587V71.3909C54.1215 71.1364 54.3373 70.9212 54.5926 70.9212H56.8506C57.7699 70.9212 58.5672 70.285 58.7713 69.3887C59.1916 67.5417 59.9139 65.7895 60.918 64.1805C61.4027 63.4038 61.2883 62.3954 60.6416 61.7469L59.0303 60.1309C58.9209 60.0223 58.8979 59.8936 58.8977 59.805C58.8977 59.7307 58.9152 59.5885 59.0344 59.4696L61.5523 56.9528C61.6717 56.8337 61.8141 56.8157 61.8891 56.8157H61.8896C61.9789 56.8159 62.1082 56.8389 62.2236 56.9551L63.8119 58.5372C64.4645 59.187 65.4795 59.2983 66.2564 58.8053C67.8658 57.785 69.6285 57.046 71.4953 56.6091C72.3859 56.4007 73.0158 55.6061 73.0158 54.6913V52.4401C73.0158 52.1825 73.2314 51.9647 73.4867 51.9647H77.051C77.3094 51.9647 77.5277 52.1825 77.5277 52.4401V54.6581C77.5277 55.5809 78.1684 56.38 79.0693 56.5805C80.9434 56.9979 82.7312 57.735 84.3834 58.7716C85.1598 59.2583 86.1701 59.1458 86.8201 58.4985L88.4262 56.8989C88.5352 56.7893 88.6643 56.7663 88.7535 56.7661H88.7541C88.8291 56.7661 88.9715 56.7841 89.0906 56.9032L91.6088 59.4198C91.7279 59.5389 91.7455 59.6811 91.7455 59.7553C91.7453 59.844 91.7223 59.9727 91.6064 60.0878L90.0125 61.6864C89.3635 62.3374 89.251 63.3507 89.7414 64.128C90.7611 65.7446 91.4947 67.5149 91.9221 69.3895C92.1264 70.2856 92.9232 70.9214 93.8426 70.9214H96.084C96.3379 70.9214 96.5607 71.1411 96.5607 71.3911V74.9583Z" fill="black"/>
<path d="M75.3412 61.1456C68.7041 61.1456 63.3045 66.5428 63.3045 73.177C63.3045 79.8081 68.7041 85.203 75.3412 85.203C81.9754 85.203 87.3725 79.8083 87.3725 73.177C87.3725 66.543 81.9754 61.1456 75.3412 61.1456ZM75.3412 81.2637C70.8764 81.2637 67.2438 77.636 67.2438 73.177C67.2438 68.7149 70.8764 65.0848 75.3412 65.0848C79.8031 65.0848 83.4332 68.7149 83.4332 73.177C83.4332 77.636 79.8029 81.2637 75.3412 81.2637Z" fill="black"/>
<path d="M30.0808 75.428H30.0422C28.9545 75.428 28.0726 76.3098 28.0726 77.3975C28.0726 78.4852 28.9545 79.3671 30.0422 79.3671H30.0808C31.1685 79.3671 32.0504 78.4852 32.0504 77.3975C32.0504 76.3098 31.1685 75.428 30.0808 75.428Z" fill="black"/>
</g>
<defs>
<clipPath id="clip0_83_184">
<rect width="100" height="100" fill="white" transform="translate(0.5 0.666672)"/>
</clipPath>
</defs>
</svg>
