<svg width="432" height="432" viewBox="0 0 432 432" fill="none" xmlns="http://www.w3.org/2000/svg">
<circle cx="216" cy="216" r="216" fill="#0F1B34"/>
<path d="M148.778 300.733C158.659 284.622 174.77 257.985 197.111 220.822C219.452 183.444 238.678 148.322 254.789 115.456C239.752 119.107 226.326 120.933 214.511 120.933C202.911 120.933 192.922 120.719 184.544 120.289C176.167 119.644 168.648 118.678 161.989 117.389C155.544 116.1 149.637 114.059 144.267 111.267C139.111 108.259 136.748 104.715 137.178 100.633C137.178 93.5444 140.937 90 148.456 90C149.315 90 156.081 91.3963 168.756 94.1889C181.43 96.9815 194.426 98.3778 207.744 98.3778C221.063 98.3778 234.811 96.9815 248.989 94.1889C263.167 91.3963 271.33 90 273.478 90C283.574 90 288.622 94.1889 288.622 102.567C288.622 107.078 285.293 115.456 278.633 127.7C271.974 139.73 262.844 155.626 251.244 175.389C239.644 194.937 229.656 211.693 221.278 225.656C196.789 265.826 180.785 292.678 173.267 306.211C200.119 314.589 221.278 318.778 236.744 318.778C252.211 318.778 264.241 315.985 272.833 310.4C281.641 304.815 286.044 297.189 286.044 287.522C286.044 277.641 282.285 271.196 274.767 268.189C272.189 266.9 269.289 266.256 266.067 266.256C262.844 266.256 259.837 268.082 257.044 271.733C252.104 276.674 251.244 283.763 254.467 293C255.111 294.933 255.433 296.007 255.433 296.222C255.648 300.089 253.178 301.593 248.022 300.733C242.867 299.874 238.785 296.115 235.778 289.456C234.274 286.019 233.522 283.226 233.522 281.078C233.522 278.715 233.522 277.211 233.522 276.567C233.522 269.263 236.852 262.281 243.511 255.622C250.17 248.748 258.656 245.311 268.967 245.311C279.278 245.311 288.407 249.178 296.356 256.911C304.519 264.43 308.6 275.385 308.6 289.778C308.6 304.17 302.156 316.415 289.267 326.511C276.593 336.393 260.374 341.333 240.611 341.333C220.848 341.333 194.963 336.5 162.956 326.833C156.941 334.567 150.281 338.433 142.978 338.433C135.889 338.433 130.948 336.93 128.156 333.922C124.719 330.27 123 326.726 123 323.289C123 319.637 123.537 316.415 124.611 313.622C125.9 310.615 128.693 307.822 132.989 305.244C137.285 302.667 142.548 301.163 148.778 300.733Z" fill="white"/>
</svg>
