<svg width="76" height="76" viewBox="0 0 76 76" fill="none" xmlns="http://www.w3.org/2000/svg">
<rect x="1.30925" y="1.26143" width="73.1995" height="73.1995" rx="36.5997" stroke="white" stroke-width="2.15293"/>
<path d="M37.9091 20.8612C28.5717 20.8612 20.909 28.5238 20.909 37.8612C20.909 45.8291 26.5001 53.0672 33.9247 54.8612V49.2369C33.1891 49.398 32.512 49.4026 31.7631 49.1819C30.7585 48.8854 29.9421 48.2161 29.3362 47.1957C28.9499 46.5441 28.2654 45.8374 27.5512 45.8893L27.3761 43.9049C28.9203 43.7726 30.2563 44.8458 31.0493 46.178C31.4015 46.7705 31.807 47.1178 32.3273 47.2714C32.8303 47.4195 33.3704 47.3484 33.9997 47.1261C34.1577 45.8662 34.7348 45.3947 35.1709 44.7306V44.7296C30.7429 44.0691 28.9782 41.72 28.2778 39.8658C27.3497 37.4039 27.8477 34.3282 29.489 32.3845C29.5209 32.3466 29.5785 32.2475 29.5561 32.1783C28.8036 29.9051 29.7206 28.0247 29.7543 27.8253C30.6228 28.0821 30.7639 27.5669 33.5268 29.2455L34.0044 29.5324C34.2041 29.6514 34.1413 29.5835 34.3411 29.5684C35.4946 29.2551 36.7107 29.0821 37.9089 29.0665C39.1161 29.0821 40.3244 29.2551 41.5257 29.5811L41.6803 29.5967C41.6668 29.5946 41.7223 29.5869 41.8155 29.5313C45.2668 27.4408 45.1428 28.1241 46.0683 27.8232C46.1018 28.0229 47.0066 29.9339 46.2621 32.1783C46.1617 32.4875 49.2543 35.3193 47.5402 39.865C46.8398 41.72 45.0753 44.0691 40.6474 44.7296V44.7306C41.2149 45.5957 41.8969 46.0559 41.8933 47.8405V54.8612C49.3181 53.0672 54.909 45.8291 54.909 37.8612C54.9093 28.5238 47.2465 20.8612 37.9091 20.8612Z" fill="white"/>
</svg>
