<svg width="48" height="48" viewBox="0 0 24 24" fill="none" xmlns="http://www.w3.org/2000/svg">
<path d="M22 5C22 4.44772 21.5523 4 21 4H8C7.4477 4 7 4.44772 7 5C7 5.55228 7.4477 6 8 6H21C21.5523 6 22 5.55228 22 5Z" fill="white"/>
<path d="M22 12C22 11.4477 21.5523 11 21 11H3C2.4477 11 2 11.4477 2 12C2 12.5523 2.4477 13 3 13H21C21.5523 13 22 12.5523 22 12Z" fill="#0078FF"/>
<path d="M21 18C21.5523 18 22 18.4477 22 19C22 19.5523 21.5523 20 21 20H13C12.4477 20 12 19.5523 12 19C12 18.4477 12.4477 18 13 18H21Z" fill="white"/>
</svg>
