<svg width="76" height="76" viewBox="0 0 76 76" fill="none" xmlns="http://www.w3.org/2000/svg">
<rect x="1.48741" y="1.26143" width="73.1995" height="73.1995" rx="36.5997" stroke="white" stroke-width="2.15293"/>
<path d="M45.8668 28.3333C45.521 28.3333 45.183 28.4358 44.8955 28.6279C44.608 28.82 44.3839 29.093 44.2516 29.4125C44.1193 29.7319 44.0847 30.0835 44.1521 30.4226C44.2196 30.7617 44.3861 31.0732 44.6306 31.3177C44.8751 31.5622 45.1866 31.7287 45.5257 31.7962C45.8648 31.8636 46.2163 31.829 46.5358 31.6967C46.8552 31.5644 47.1283 31.3403 47.3204 31.0528C47.5125 30.7653 47.615 30.4273 47.615 30.0815C47.615 29.6179 47.4308 29.1732 47.1029 28.8453C46.7751 28.5175 46.3304 28.3333 45.8668 28.3333ZM52.5683 31.8589C52.54 30.6501 52.3136 29.4542 51.8982 28.3187C51.5277 27.3472 50.9512 26.4674 50.2082 25.7401C49.4868 24.9933 48.605 24.4204 47.6296 24.0647C46.4971 23.6366 45.2998 23.405 44.0894 23.38C42.5451 23.2925 42.0498 23.2925 38.0871 23.2925C34.1244 23.2925 33.6291 23.2925 32.0848 23.38C30.8744 23.405 29.6771 23.6366 28.5447 24.0647C27.571 24.424 26.69 24.9964 25.966 25.7401C25.2193 26.4615 24.6464 27.3433 24.2906 28.3187C23.8625 29.4512 23.631 30.6485 23.6059 31.8589C23.5185 33.4032 23.5185 33.8985 23.5185 37.8612C23.5185 41.8238 23.5185 42.3192 23.6059 43.8634C23.631 45.0739 23.8625 46.2711 24.2906 47.4036C24.6464 48.3791 25.2193 49.2608 25.966 49.9823C26.69 50.7259 27.571 51.2983 28.5447 51.6576C29.6771 52.0857 30.8744 52.3173 32.0848 52.3424C33.6291 52.4298 34.1244 52.4298 38.0871 52.4298C42.0498 52.4298 42.5451 52.4298 44.0894 52.3424C45.2998 52.3173 46.4971 52.0857 47.6296 51.6576C48.605 51.3019 49.4868 50.729 50.2082 49.9823C50.9545 49.2576 51.5315 48.3771 51.8982 47.4036C52.3136 46.2681 52.54 45.0722 52.5683 43.8634C52.5683 42.3192 52.6557 41.8238 52.6557 37.8612C52.6557 33.8985 52.6557 33.4032 52.5683 31.8589ZM49.946 43.6886C49.9354 44.6134 49.7679 45.5296 49.4506 46.3984C49.218 47.0324 48.8444 47.6053 48.358 48.0738C47.8855 48.5553 47.3137 48.9281 46.6826 49.1664C45.8139 49.4836 44.8976 49.6511 43.9728 49.6617C42.516 49.7346 41.9769 49.7492 38.1454 49.7492C34.3138 49.7492 33.7748 49.7492 32.3179 49.6617C31.3577 49.6797 30.4016 49.5319 29.4916 49.2247C28.8882 48.9742 28.3427 48.6023 27.8891 48.132C27.4055 47.664 27.0366 47.0907 26.811 46.4566C26.4553 45.5755 26.258 44.6384 26.2283 43.6886C26.2283 42.2317 26.1408 41.6927 26.1408 37.8612C26.1408 34.0296 26.1408 33.4906 26.2283 32.0337C26.2348 31.0883 26.4074 30.1514 26.7382 29.2657C26.9946 28.6508 27.3883 28.1026 27.8891 27.6631C28.3317 27.1622 28.8787 26.7644 29.4916 26.4976C30.3797 26.1772 31.3156 26.0097 32.2597 26.0023C33.7165 26.0023 34.2556 25.9149 38.0871 25.9149C41.9187 25.9149 42.4577 25.9149 43.9146 26.0023C44.8393 26.0129 45.7556 26.1804 46.6243 26.4976C47.2864 26.7433 47.8806 27.1428 48.358 27.6631C48.8354 28.1106 49.2084 28.6578 49.4506 29.2657C49.7744 30.1528 49.942 31.0893 49.946 32.0337C50.0188 33.4906 50.0334 34.0296 50.0334 37.8612C50.0334 41.6927 50.0188 42.2317 49.946 43.6886ZM38.0871 30.3875C36.6096 30.3903 35.1661 30.8311 33.9389 31.6541C32.7118 32.4771 31.7561 33.6453 31.1927 35.0112C30.6293 36.3771 30.4833 37.8793 30.7734 39.3281C31.0634 40.7769 31.7763 42.1072 32.8221 43.151C33.8679 44.1948 35.1996 44.9051 36.649 45.1923C38.0983 45.4795 39.6003 45.3306 40.9651 44.7646C42.3299 44.1985 43.4963 43.2405 44.3168 42.0118C45.1374 40.7831 45.5754 39.3387 45.5754 37.8612C45.5773 36.8779 45.3848 35.904 45.009 34.9954C44.6332 34.0869 44.0815 33.2616 43.3855 32.567C42.6896 31.8724 41.8632 31.3223 40.9539 30.9482C40.0446 30.5742 39.0703 30.3836 38.0871 30.3875ZM38.0871 42.7125C37.1276 42.7125 36.1896 42.428 35.3918 41.8949C34.594 41.3618 33.9722 40.6042 33.605 39.7177C33.2379 38.8312 33.1418 37.8558 33.329 36.9147C33.5162 35.9736 33.9782 35.1092 34.6567 34.4307C35.3352 33.7523 36.1996 33.2902 37.1407 33.103C38.0817 32.9158 39.0572 33.0119 39.9436 33.3791C40.8301 33.7463 41.5878 34.3681 42.1209 35.1659C42.6539 35.9637 42.9385 36.9017 42.9385 37.8612C42.9385 38.4982 42.813 39.1291 42.5692 39.7177C42.3254 40.3063 41.968 40.8411 41.5175 41.2916C41.067 41.7421 40.5322 42.0994 39.9436 42.3432C39.3551 42.587 38.7242 42.7125 38.0871 42.7125Z" fill="white"/>
</svg>
