<svg width="76" height="76" viewBox="0 0 76 76" fill="none" xmlns="http://www.w3.org/2000/svg">
<rect x="1.30925" y="1.26143" width="73.1995" height="73.1995" rx="36.5997" stroke="white" stroke-width="2.15293"/>
<path d="M23.2911 26.6394C23.2911 25.655 23.6204 24.8429 24.2788 24.203C24.9373 23.5632 25.7933 23.2433 26.8468 23.2433C27.8816 23.2433 28.7187 23.5583 29.3584 24.1883C30.0168 24.838 30.3461 25.6845 30.3461 26.7279C30.3461 27.6729 30.0263 28.4604 29.3866 29.0904C28.7282 29.7401 27.8627 30.065 26.7904 30.065H26.7622C25.7274 30.065 24.8903 29.7401 24.2506 29.0904C23.611 28.4407 23.2911 27.6237 23.2911 26.6394ZM23.658 52.479V32.7523H29.9228V52.479H23.658ZM33.3938 52.479H39.6586V41.4639C39.6586 40.7748 39.7339 40.2433 39.8844 39.8692C40.1478 39.1999 40.5475 38.6338 41.0837 38.1712C41.6199 37.7086 42.2925 37.4772 43.1014 37.4772C45.2085 37.4772 46.2621 38.9636 46.2621 41.9364V52.479H52.5268V41.1686C52.5268 38.2549 51.8684 36.045 50.5515 34.5389C49.2345 33.0328 47.4943 32.2798 45.3308 32.2798C42.9039 32.2798 41.0132 33.3724 39.6586 35.5577V35.6168H39.6304L39.6586 35.5577V32.7523H33.3938C33.4314 33.3823 33.4503 35.3411 33.4503 38.6289C33.4503 41.9167 33.4314 46.5334 33.3938 52.479Z" fill="white"/>
</svg>
