<svg width="233" height="28" viewBox="0 0 233 28" fill="none" xmlns="http://www.w3.org/2000/svg">
<path d="M25.28 27.5H0.16V22.1L15.92 6.54V6.1H0.52V0.699999H24.96V6.1L8.68 21.66V22.1H25.28V27.5ZM49.0228 27.5H43.4228V22.74L43.1028 22.66V15.66C43.1028 14.3533 42.7695 13.4733 42.1028 13.02C41.4628 12.5667 40.3428 12.34 38.7428 12.34C37.2228 12.34 36.1295 12.5667 35.4628 13.02C34.7961 13.4733 34.4628 14.2733 34.4628 15.42V15.58H28.4228V15.46C28.4228 13.8067 28.8628 12.3533 29.7428 11.1C30.6228 9.82 31.8628 8.83333 33.4628 8.14C35.0895 7.42 36.9961 7.06 39.1828 7.06C41.4228 7.06 43.2628 7.42 44.7028 8.14C46.1695 8.86 47.2495 9.87333 47.9428 11.18C48.6628 12.46 49.0228 13.98 49.0228 15.74V27.5ZM34.9428 27.9C32.7828 27.9 31.0895 27.42 29.8628 26.46C28.6361 25.5 28.0228 24.1933 28.0228 22.54C28.0228 21.5267 28.2628 20.66 28.7428 19.94C29.2228 19.22 29.9428 18.6467 30.9028 18.22C31.8628 17.7667 33.0628 17.46 34.5028 17.3L43.5028 16.38V19.82L36.1428 20.66C35.4228 20.7133 34.8895 20.86 34.5428 21.1C34.2228 21.3133 34.0628 21.66 34.0628 22.14C34.0628 22.6733 34.2761 23.06 34.7028 23.3C35.1295 23.54 35.7828 23.66 36.6628 23.66C38.1028 23.66 39.2895 23.5267 40.2228 23.26C41.1561 22.9933 41.8628 22.5667 42.3428 21.98C42.8495 21.3667 43.1028 20.5533 43.1028 19.54L43.6628 19.5V22.9H43.1028C42.6495 24.4467 41.7295 25.6733 40.3428 26.58C38.9828 27.46 37.1828 27.9 34.9428 27.9ZM58.8641 27.5H52.8641V7.46H58.8641V27.5ZM58.8641 5.42H52.8641V0.699999H58.8641V5.42ZM71.7647 27.9C69.6847 27.9 67.9247 27.4733 66.4847 26.62C65.0447 25.7667 63.9514 24.5667 63.2047 23.02C62.458 21.4467 62.0847 19.6067 62.0847 17.5C62.0847 15.3667 62.4447 13.5267 63.1647 11.98C63.9114 10.4067 64.978 9.19333 66.3647 8.34C67.778 7.48667 69.4714 7.06 71.4447 7.06C73.818 7.06 75.6447 7.59333 76.9247 8.66C78.2047 9.72667 79.0047 11.1 79.3247 12.78H80.4447V17.3H79.6847C79.6847 15.5667 79.178 14.34 78.1647 13.62C77.178 12.9 75.7247 12.54 73.8047 12.54C72.5247 12.54 71.458 12.7 70.6047 13.02C69.778 13.34 69.1647 13.86 68.7647 14.58C68.3647 15.2733 68.1647 16.2467 68.1647 17.5C68.1647 18.7 68.3647 19.66 68.7647 20.38C69.1647 21.1 69.778 21.62 70.6047 21.94C71.458 22.26 72.5247 22.42 73.8047 22.42C75.0847 22.42 76.1514 22.26 77.0047 21.94C77.8847 21.62 78.5514 21.1133 79.0047 20.42C79.458 19.7 79.6847 18.7667 79.6847 17.62H80.4447L80.8447 21.94H79.7647C79.3914 23.9133 78.538 25.4067 77.2047 26.42C75.8714 27.4067 74.058 27.9 71.7647 27.9ZM85.6847 27.5H80.0847V21.58L79.6847 21.06V0.699999H85.6847V27.5ZM156.724 27.5H145.444V22.1H156.724C158.564 22.1 160.031 21.8867 161.124 21.46C162.244 21.0067 163.058 20.2067 163.564 19.06C164.098 17.8867 164.364 16.2333 164.364 14.1C164.364 11.94 164.098 10.2867 163.564 9.14C163.058 7.99333 162.244 7.20667 161.124 6.78C160.031 6.32667 158.564 6.1 156.724 6.1H145.444V0.699999H156.724C159.604 0.699999 162.084 1.23333 164.164 2.3C166.271 3.36667 167.898 4.9 169.044 6.9C170.191 8.9 170.764 11.3 170.764 14.1C170.764 16.9 170.191 19.3 169.044 21.3C167.898 23.3 166.271 24.8333 164.164 25.9C162.084 26.9667 159.604 27.5 156.724 27.5ZM149.804 27.5H143.804V0.699999H149.804V27.5ZM184.807 27.9C182.594 27.9 180.634 27.5267 178.927 26.78C177.221 26.0333 175.901 24.8867 174.967 23.34C174.034 21.7933 173.567 19.8467 173.567 17.5C173.567 15.3667 174.034 13.5267 174.967 11.98C175.901 10.4067 177.194 9.19333 178.847 8.34C180.527 7.48667 182.474 7.06 184.687 7.06C186.874 7.06 188.781 7.43333 190.407 8.18C192.061 8.92667 193.341 10.0333 194.247 11.5C195.154 12.94 195.607 14.7 195.607 16.78C195.607 17.1267 195.594 17.4467 195.567 17.74C195.541 18.0333 195.501 18.3533 195.447 18.7H177.447V15.54H191.207L189.847 17.5C189.847 17.2333 189.847 16.98 189.847 16.74C189.847 16.5 189.847 16.26 189.847 16.02C189.847 14.5 189.434 13.4067 188.607 12.74C187.781 12.0733 186.434 11.74 184.567 11.74C182.541 11.74 181.127 12.14 180.327 12.94C179.527 13.7133 179.127 14.9533 179.127 16.66V18.18C179.127 19.8867 179.527 21.14 180.327 21.94C181.127 22.7133 182.554 23.1 184.607 23.1C186.367 23.1 187.607 22.8733 188.327 22.42C189.047 21.9667 189.407 21.3133 189.407 20.46V20.06H195.407V20.5C195.407 21.94 194.967 23.22 194.087 24.34C193.207 25.46 191.967 26.34 190.367 26.98C188.794 27.5933 186.941 27.9 184.807 27.9ZM213.872 27.5H206.472L197.352 7.46H204.032L210.032 21.66H210.432L216.472 7.46H223.032L213.872 27.5Z" fill="white"/>
<path d="M109.591 27.9C106.685 27.9 104.258 27.4333 102.311 26.5C100.365 25.5667 98.8979 24.2333 97.9113 22.5C96.9246 20.7667 96.4313 18.7 96.4313 16.3V0.699999H102.431V15.86C102.431 17.38 102.645 18.6067 103.071 19.54C103.525 20.4467 104.271 21.1 105.311 21.5C106.378 21.8733 107.805 22.06 109.591 22.06C111.431 22.06 112.871 21.8733 113.911 21.5C114.951 21.1 115.685 20.4467 116.111 19.54C116.538 18.6067 116.751 17.38 116.751 15.86V0.699999H122.751V16.3C122.751 18.7 122.258 20.7667 121.271 22.5C120.285 24.2333 118.818 25.5667 116.871 26.5C114.951 27.4333 112.525 27.9 109.591 27.9ZM132.572 27.5H126.572V0.699999H132.572V27.5ZM232.736 27.5H225.016V20.5H232.736V27.5Z" fill="#0078FF"/>
</svg>
