<svg width="100" height="101" viewBox="0 0 100 101" fill="none" xmlns="http://www.w3.org/2000/svg">
<g clip-path="url(#clip0_83_118)">
<path d="M60.1562 98.7135H7.8125C4.57611 98.7135 1.95312 96.0906 1.95312 92.8542V8.47917C1.95312 5.24278 4.57611 2.6198 7.8125 2.6198H60.1562C63.3926 2.6198 66.0156 5.24278 66.0156 8.47917V92.8542C66.0156 96.0906 63.3926 98.7135 60.1562 98.7135Z" fill="#72D8FF"/>
<path d="M1.95312 13.1667H66.0156V86.2135H1.95312V13.1667Z" fill="white"/>
<path d="M98.0469 21.7604V70.0606C98.0469 74.6672 94.313 78.401 89.7064 78.401H15.625V21.7589L98.0469 21.7604Z" fill="#EDF2FA"/>
<path d="M98.0469 68.6949V20.8952C98.0469 16.2886 94.313 12.5548 89.7064 12.5548V61.7201C94.313 61.7201 98.0469 65.4547 98.0469 70.0606" fill="#FFC66C"/>
<path d="M23.4375 29.5668H37.5V70.5885H23.4375V29.5668Z" fill="#ADE5FF"/>
<path d="M45.7031 29.5668H81.6406V41.6762H45.7031V29.5668Z" fill="#FF5D5D"/>
<path d="M45.7031 51.0451H58.2031V61.9826H45.7031V51.0451Z" fill="#FFC66C"/>
<path d="M69.1406 51.0451H81.6406V61.9826H69.1406V51.0451Z" fill="#FFC66C"/>
<path d="M33.9752 90.5104C32.8964 90.5104 32.0221 91.3847 32.0221 92.4635C32.0221 93.5423 32.8964 94.4167 33.9752 94.4167H33.9935C35.0723 94.4167 35.9375 93.5423 35.9375 92.4635C35.9375 91.3847 35.054 90.5104 33.9752 90.5104Z" fill="black"/>
<path d="M89.7064 10.6017C88.6276 10.6017 87.7533 11.476 87.7533 12.5548V19.8073H67.9688V8.47917C67.9688 4.17162 64.4638 0.666672 60.1562 0.666672H7.8125C3.50494 0.666672 0 4.17162 0 8.47917V92.8542C0 97.1617 3.50494 100.667 7.8125 100.667H60.1562C64.4638 100.667 67.9688 97.1617 67.9688 92.8542V80.3542H89.7064C95.2011 80.3542 99.704 76.0268 99.9863 70.6008C99.9954 70.5237 100 70.4451 100 70.3658V20.8952C100 15.219 95.3819 10.6017 89.7064 10.6017ZM7.8125 4.57292H60.1562C62.31 4.57292 64.0625 6.32539 64.0625 8.47917V11.2135H3.90625V8.47917C3.90625 6.32539 5.65872 4.57292 7.8125 4.57292ZM60.1562 96.7604H7.8125C5.65872 96.7604 3.90625 95.0079 3.90625 92.8542V88.1667H64.0625V92.8542C64.0625 95.0079 62.31 96.7604 60.1562 96.7604ZM89.7064 76.4479H17.5781V23.712H37.5C38.5788 23.712 39.4531 22.8377 39.4531 21.7589C39.4531 20.6801 38.5788 19.8058 37.5 19.8058H15.625C14.5462 19.8058 13.6719 20.6801 13.6719 21.7589V78.401C13.6719 79.4798 14.5462 80.3542 15.625 80.3542H64.0625V84.2604H3.90625V15.1198H64.0625V19.8073H53.125C52.0462 19.8073 51.1719 20.6816 51.1719 21.7604C51.1719 22.8392 52.0462 23.7135 53.125 23.7135H87.7533V61.7201C87.7533 62.7989 88.6276 63.6733 89.7064 63.6733C93.2281 63.6733 96.0938 66.5389 96.0938 70.0606C96.0938 73.5823 93.2281 76.4479 89.7064 76.4479ZM96.0938 61.994C94.8235 60.9862 93.3113 60.2713 91.6595 59.9532V14.8131C94.2291 15.6401 96.0938 18.0541 96.0938 20.8952V61.994Z" fill="black"/>
<path d="M45.7031 23.7135C46.2166 23.7135 46.7209 23.5045 47.084 23.1413C47.4472 22.7782 47.6562 22.2739 47.6562 21.7604C47.6562 21.247 47.4472 20.7427 47.084 20.3795C46.7209 20.0163 46.2166 19.8073 45.7031 19.8073C45.1897 19.8073 44.6854 20.0163 44.3222 20.3795C43.959 20.7427 43.75 21.247 43.75 21.7604C43.75 22.2739 43.959 22.7782 44.3222 23.1413C44.6854 23.5045 45.1897 23.7135 45.7031 23.7135Z" fill="black"/>
<path d="M37.5 27.6137H23.4375C22.3587 27.6137 21.4844 28.488 21.4844 29.5668V70.5885C21.4844 71.6673 22.3587 72.5417 23.4375 72.5417H37.5C38.5788 72.5417 39.4531 71.6673 39.4531 70.5885V62.7699C39.4531 61.6911 38.5788 60.8168 37.5 60.8168C36.4212 60.8168 35.5469 61.6911 35.5469 62.7699V68.6354H25.3906V31.5199H35.5469V47.1449C35.5469 48.2237 36.4212 49.0981 37.5 49.0981C38.5788 49.0981 39.4531 48.2237 39.4531 47.1449V29.5668C39.4531 28.488 38.5788 27.6137 37.5 27.6137Z" fill="black"/>
<path d="M37.5 53.0043C36.9865 53.0043 36.4822 53.2134 36.1191 53.5765C35.7559 53.9404 35.5469 54.444 35.5469 54.9574C35.5469 55.4717 35.7559 55.9752 36.1191 56.3384C36.4822 56.7015 36.9865 56.9106 37.5 56.9106C38.0135 56.9106 38.5178 56.7015 38.8809 56.3384C39.2441 55.9752 39.4531 55.4717 39.4531 54.9574C39.4531 54.444 39.2441 53.9404 38.8809 53.5765C38.5178 53.2134 38.0135 53.0043 37.5 53.0043Z" fill="black"/>
<path d="M81.6406 27.6137H45.7031C44.6243 27.6137 43.75 28.488 43.75 29.5668V41.6762C43.75 42.755 44.6243 43.6293 45.7031 43.6293H81.6406C82.7194 43.6293 83.5938 42.755 83.5938 41.6762V29.5668C83.5938 28.488 82.7194 27.6137 81.6406 27.6137ZM79.6875 39.7231H47.6562V31.5199H79.6875V39.7231Z" fill="black"/>
<path d="M58.2031 49.092H45.7031C44.6243 49.092 43.75 49.9663 43.75 51.0451V61.9826C43.75 63.0614 44.6243 63.9357 45.7031 63.9357H58.2031C59.2819 63.9357 60.1562 63.0614 60.1562 61.9826V51.0451C60.1562 49.9663 59.2819 49.092 58.2031 49.092ZM56.25 60.0295H47.6562V52.9982H56.25V60.0295Z" fill="black"/>
<path d="M57.4547 68.6293H45.7031C44.6243 68.6293 43.75 69.5036 43.75 70.5824C43.75 71.6612 44.6243 72.5356 45.7031 72.5356H57.4547C58.5335 72.5356 59.4078 71.6612 59.4078 70.5824C59.4078 69.5036 58.5335 68.6293 57.4547 68.6293Z" fill="black"/>
<path d="M81.6406 49.092H69.1406C68.0618 49.092 67.1875 49.9663 67.1875 51.0451V61.9826C67.1875 63.0614 68.0618 63.9357 69.1406 63.9357H81.6406C82.7194 63.9357 83.5938 63.0614 83.5938 61.9826V51.0451C83.5938 49.9663 82.7194 49.092 81.6406 49.092ZM79.6875 60.0295H71.0938V52.9982H79.6875V60.0295Z" fill="black"/>
<path d="M80.8922 68.6293H69.1406C68.0618 68.6293 67.1875 69.5036 67.1875 70.5824C67.1875 71.6612 68.0618 72.5356 69.1406 72.5356H80.8922C81.971 72.5356 82.8453 71.6612 82.8453 70.5824C82.8453 69.5036 81.971 68.6293 80.8922 68.6293Z" fill="black"/>
</g>
<defs>
<clipPath id="clip0_83_118">
<rect width="100" height="100" fill="white" transform="translate(0 0.666672)"/>
</clipPath>
</defs>
</svg>
