<svg width="101" height="101" viewBox="0 0 101 101" fill="none" xmlns="http://www.w3.org/2000/svg">
<g clip-path="url(#clip0_83_141)">
<path d="M93.1614 11.1364H7.83837C4.59598 11.1364 1.96747 13.7648 1.96747 17.0073V62.0171H99.0321V17.0071C99.0321 13.7648 96.4038 11.1364 93.1614 11.1364Z" fill="#80D8FF"/>
<path d="M47.7602 58.1029V16.7056L44.4186 11.1361H31.5325L28.1907 16.7056V11.1363H7.83836C7.43621 11.1363 7.04364 11.1769 6.66414 11.2538V58.1029H1.96766V62.0167H99.0323V58.1029H47.7602Z" fill="#40C4FF"/>
<path d="M70.0693 91.3711H30.9302C28.7685 91.3711 27.0164 93.1235 27.0164 95.285V99.1989H73.9832V95.285C73.9832 93.1235 72.2308 91.3711 70.0693 91.3711Z" fill="#D8D7DA"/>
<path d="M64.1983 77.6726H36.8011V91.3712H64.1983V77.6726Z" fill="#D8D7DA"/>
<path d="M1.96766 71.8016C1.96766 75.044 4.59598 77.6725 7.83856 77.6725H93.1614C96.4038 77.6725 99.0323 75.0442 99.0323 71.8016V62.0169H1.96766V71.8016Z" fill="#D8D7DA"/>
<path d="M64.1984 77.6723H36.8011V81.5862H64.1984V77.6723Z" fill="#ACABB1"/>
<path d="M64.1984 87.4572H36.8011V91.3711H64.1984V87.4572Z" fill="#ACABB1"/>
<path d="M73.9832 95.285H27.0164V99.1989H73.9832V95.285Z" fill="#ACABB1"/>
<path d="M93.1614 73.7586H7.83837C4.59598 73.7586 1.96747 71.1303 1.96747 67.8877V71.8016C1.96747 75.0439 4.59579 77.6725 7.83837 77.6725H93.1612C96.4036 77.6725 99.0321 75.0441 99.0321 71.8016V67.8877C99.0321 71.1303 96.4038 73.7586 93.1614 73.7586Z" fill="#ACABB1"/>
<path d="M24.2768 2.13433H10.5782V62.0169H24.2768V2.13433Z" fill="#FDD835"/>
<path d="M43.8462 54.1889H32.1046V62.0167H43.8462V54.1889Z" fill="#FDD835"/>
<path d="M37.9756 21.3123L32.1047 17.7898V54.1891H43.8463V17.7898L37.9756 21.3123Z" fill="#ED593B"/>
<path d="M43.8463 17.7899L37.9756 8.00515L32.1047 17.7899L37.9756 21.3124L43.8463 17.7899Z" fill="#FDD8A8"/>
<path d="M93.1613 17.0071H61.8502V30.7057H93.1613V17.0071Z" fill="#B0EF60"/>
<path d="M74.5703 36.5767H61.8502V44.4044H74.5703V36.5767Z" fill="#FDD835"/>
<path d="M93.1614 36.5766H80.4412V44.4043H93.1614V36.5766Z" fill="#FDD835"/>
<path d="M74.5703 40.4905H61.8502V44.4044H74.5703V40.4905Z" fill="#FBC02D"/>
<path d="M93.1614 40.4906H80.4412V44.4044H93.1614V40.4906Z" fill="#FBC02D"/>
<path d="M93.1613 26.7918H61.8502V30.7056H93.1613V26.7918Z" fill="#64DD17"/>
<path d="M43.8463 58.103H32.1047V62.0169H43.8463V58.103Z" fill="#FBC02D"/>
<path d="M43.8463 50.2752H32.1047V54.1891H43.8463V50.2752Z" fill="#E23423"/>
<path d="M24.2768 58.103H10.5782V62.0169H24.2768V58.103Z" fill="#FBC02D"/>
<path d="M34.1184 14.4339L32.1047 17.7899L37.9756 21.3124L43.8463 17.7899L41.8327 14.4339L37.9756 16.7481L34.1184 14.4339Z" fill="#FFC477"/>
<path d="M93.1615 9.66862H45.6076V12.604H93.1615C95.5893 12.604 97.5647 14.5792 97.5647 17.0071V60.5491H45.3141V17.3835L37.9756 5.15261L30.6369 17.3835V60.5493H25.7445V0.666672H9.11055V60.5493H3.43535V17.0071C3.43535 15.1991 4.56836 13.5471 6.25469 12.8969L5.19824 10.1583C2.38809 11.2423 0.5 13.9944 0.5 17.0071V71.8016C0.5 75.8481 3.79199 79.1401 7.83848 79.1401H35.3336V89.9034H30.9305C27.9631 89.9034 25.5488 92.3175 25.5488 95.285V100.667H75.4512V95.285C75.4512 92.3175 73.0369 89.9034 70.0695 89.9034H65.6664V79.1401H93.1615C97.208 79.1401 100.5 75.8481 100.5 71.8016V17.0071C100.5 12.9606 97.208 9.66862 93.1615 9.66862ZM37.9756 10.8581L41.8328 17.2866L37.9756 19.6007L34.1184 17.2864L37.9756 10.8581ZM33.5725 20.3821L37.9756 23.0239L42.3787 20.3821V52.7214H33.5725V20.3821ZM33.5725 55.6569H42.3787V60.5493H33.5725V55.6569ZM12.0459 57.0268H19.1887V54.0915H12.0459V51.1561H16.0576V48.2208H12.0459V45.2854H19.1887V42.3501H12.0459V39.4147H16.0576V36.4794H12.0459V33.544H19.1887V30.6087H12.0459V27.6725H16.0576V24.7372H12.0459V21.8018H19.1887V18.8663H12.0459V15.9309H16.0576V12.9954H12.0459V10.06H19.1887V7.12468H12.0459V3.60202H22.8092V60.5491H12.0459V57.0268ZM70.0695 92.8389C71.4184 92.8389 72.5156 93.9362 72.5156 95.285V97.7311H28.4844V95.285C28.4844 93.9362 29.5816 92.8389 30.9305 92.8389H70.0695ZM38.2691 89.9034V79.1401H62.7311V89.9034H38.2691ZM97.5647 71.8016C97.5647 74.2296 95.5893 76.2048 93.1615 76.2048H7.83848C5.41074 76.2048 3.43535 74.2296 3.43535 71.8016V63.4846H97.5645V71.8016H97.5647Z" fill="black"/>
<path d="M94.629 15.5396H60.3825V32.1735H94.629V15.5396ZM91.6936 29.2382H63.3178V18.4749H91.6936V29.2382Z" fill="black"/>
<path d="M60.3825 45.872H76.0382V35.1088H60.3825V45.872ZM63.3178 38.0443H73.1026V42.9367H63.3178V38.0443Z" fill="black"/>
<path d="M94.6291 45.872V35.1088H78.9734V45.872H94.6291ZM81.909 38.0443H91.6937V42.9367H81.909V38.0443Z" fill="black"/>
<path d="M48.3471 54.6784V57.6138H57.1536V54.6784H54.218V18.4749H57.1536V15.5396H48.3471V18.4749H51.2827V54.6784H48.3471Z" fill="black"/>
<path d="M57.8386 71.3123H54.9032V68.377H57.8386V71.3123ZM51.9679 71.3123H49.0325V68.377H51.9679V71.3123ZM46.097 71.3123H43.1616V68.377H46.097V71.3123Z" fill="white"/>
<path d="M39.4432 49.6881H36.5078V44.7957H39.4432V49.6881ZM39.4432 41.8604H36.5078V38.925H39.4432V41.8604ZM39.4432 35.9895H36.5078V26.2047H39.4432V35.9895Z" fill="white"/>
<path d="M74.5705 52.7216H71.6352V49.7862H74.5705V52.7216ZM68.6996 52.7216H61.8502V49.7862H68.6996V52.7216Z" fill="white"/>
<path d="M93.1617 52.7216H90.2263V49.7862H93.1617V52.7216ZM87.2908 52.7216H80.4415V49.7862H87.2908V52.7216Z" fill="white"/>
</g>
<defs>
<clipPath id="clip0_83_141">
<rect width="100" height="100" fill="white" transform="translate(0.5 0.666672)"/>
</clipPath>
</defs>
</svg>
